<svg id="Layer_1" data-name="Layer 1" xmlns="http://www.w3.org/2000/svg" viewBox="0 0 566.93 926.1">
  <defs>
    <style>
      .cls-1 {
        fill: #1d1d1b;
      }

      .cls-2 {
        fill: #fff;
      }
    </style>
  </defs>
  <title>Artboard 1</title>
  <path class="cls-1" d="M222.76,54.68c44.93-36.29,101.17-33.25,104.14-33C395.78,26.34,444,81.42,462.84,124.9c17.06,39.36,17.56,82.8,17.52,89.84-.19,33.56-8,50.7-.86,87.58,3.78,19.61,10.57,35.94,15.56,48.3a366.12,366.12,0,0,0,28.19,55.64A447.53,447.53,0,0,1,542.19,489c4.75,36.52,5.44,90-19.49,207.42C498.89,808.66,486.82,864.55,456,888.67c-28.21,22.06-89.76,19.48-211.77,19.15-88.95-.24-133.86-.7-155-17.27-20.47-16-24.69-33.21-49-276.51-3.57-35.63-7.33-76.27,2.22-128.23C49,449.74,55.23,415.75,80,382c6.75-9.19,13.92-10.58,43.68-54.15,14.6-21.38,24.15-35.61,30.08-56.74.54-1.93.94-3.59,1.26-5.27,4.94-26,4.69-44.59,4.6-57.68-.09-13.26-.07-42.91,10.46-75.23a176.85,176.85,0,0,1,17-37.41C189.8,91.19,202.47,71.07,222.76,54.68Z"/>
  <g>
    <path class="cls-2" d="M127,721.75a125.83,125.83,0,0,1-2.08-23.85c0-13,2.26-21.45,7.37-27.74,3.9-5.25,9.9-8.4,17.85-8.39,9.75,0,18.3,6.46,22.19,17.12h.3c2.4-9.6,10.36-20.84,25.36-20.83a27.26,27.26,0,0,1,20.25,8.56c6.44,7.06,9.43,18.46,9.42,35a151.79,151.79,0,0,1-1.22,20.25Zm41.4-13V696.88c0-13.8-7.18-21.9-16.93-21.91-11.85,0-16.5,9-16.51,22.19a55.48,55.48,0,0,0,.89,11.55Zm48.45,0a69.51,69.51,0,0,0,.61-10.95c0-13.5-4.93-26-19.63-26-13.8,0-19.51,11.83-19.52,26.08v10.8Z"/>
    <path class="cls-2" d="M133.82,626.21c4.5-.15,8.1,3.15,8.09,8.4a7.85,7.85,0,0,1-8.1,7.95,8.06,8.06,0,0,1-8.25-8.26C125.57,629.35,129.17,626.2,133.82,626.21Zm93,14.77-72.59-.06v-13.2l72.6.06Z"/>
    <path class="cls-2" d="M213.33,607.67a34.6,34.6,0,0,0,5.26-17.4c0-9.6-4.78-14.1-10.78-14.1-6.3,0-9.76,3.74-13.36,13.49-4.66,13-11.87,19.19-20.57,19.18-11.7,0-21.29-9.47-21.28-25.07a36.18,36.18,0,0,1,4.52-17.84l9.59,3.3a28.34,28.34,0,0,0-4.21,14.85c0,7.8,4.49,12.15,9.89,12.16,6,0,8.71-4.35,12.31-13.79,4.81-12.6,11.12-19,21.92-19,12.75,0,21.74,9.91,21.72,27.16,0,7.95-2,15.3-5,20.4Z"/>
    <path class="cls-2" d="M133.44,530.51h20.85l0-18.89h10.05l0,18.9,39.15,0c9,0,14.1-2.54,14.11-9.89a29.36,29.36,0,0,0-.9-7.65l9.91-.59a32.57,32.57,0,0,1,1.79,11.7c0,6.15-2,11.1-5.56,14.25-3.91,3.74-10.36,5.09-18.91,5.08l-39.6,0v11.25h-10V543.42h-17.4Z"/>
    <path class="cls-2" d="M177,496.79c-8.55,0-15.9.14-22.65.58V485.82l14.25-.43v-.6c-9.75-3.31-15.89-11.27-15.88-20.11a14.28,14.28,0,0,1,.45-3.75H165.6a20.24,20.24,0,0,0-.46,4.5c0,9.29,7,15.9,16.94,17.71a37.15,37.15,0,0,0,6.15.6l38.7,0v13.05Z"/>
    <path class="cls-2" d="M190.11,383.56c26.85,0,38.53,18.62,38.52,36.17,0,19.65-14.43,34.79-37.38,34.77-24.3,0-38.53-15.93-38.52-36C152.75,397.63,167.91,383.54,190.11,383.56Zm.7,57.59c15.9,0,27.91-9.13,27.92-22,0-12.6-11.83-22.06-28.18-22.07-12.3,0-27.91,6.12-27.92,21.72S177,441.14,190.81,441.15Z"/>
  </g>
  <g>
    <path class="cls-2" d="M275.5,868.15c-1.5-7.62-2.53-19.64-2.36-31.83.24-17.4,3.39-28.56,10.31-36.86,5.29-6.93,13.35-11,23.95-10.87,13,.18,24.28,8.93,29.28,23.2h.4c3.38-12.76,14.18-27.61,34.18-27.33a36.32,36.32,0,0,1,26.84,11.77c8.47,9.52,12.26,24.77,12,46.77a203.79,203.79,0,0,1-2,27Zm55.43-16.63.22-15.8c.26-18.4-9.19-29.33-22.19-29.51-15.8-.22-22.17,11.69-22.41,29.29-.11,8,.43,12.61,1,15.42Zm64.6.89a94.43,94.43,0,0,0,1-14.59c.25-18-6.12-34.69-25.72-35-18.4-.25-26.22,15.44-26.48,34.44l-.2,14.4Z"/>
    <path class="cls-2" d="M410.71,708.6l-12.22,1.24v.6c7.52,5.5,14.18,16,14,29.79-.27,19.6-14.21,29.41-28.21,29.21-23.4-.32-35.91-21.29-35.19-58.69l-2,0c-8-.11-22.43,1.89-22.7,21.69a48.13,48.13,0,0,0,6.85,25.29l-11.66,3.84c-5.08-8.07-8.32-19.72-8.16-31.91.41-29.6,20.71-36.52,40.11-36.25l36.19.5a137.78,137.78,0,0,0,23.22-1.28Zm-49.43,1.92c-.66,19.2,2.44,41,21.23,41.3,11.4.16,16.91-7.37,17-16.37.17-12.6-7.71-20.71-15.87-23.62a18.43,18.43,0,0,0-5.59-1.07Z"/>
    <path class="cls-2" d="M411.29,666.61c-6.59-.49-16.39-1-25-1.15l-117-1.61.24-17.4,60.79.84v-.4c-10.72-6.35-17.56-17.64-17.35-33.24.34-24,20.57-40.72,50-40.12,34.6.48,51.5,22.52,51.2,44.11-.2,14-5.75,25.13-18.65,32.15v.6l16,1Zm-38.54-18.74a32.43,32.43,0,0,0,6.41-.71c12.24-3.23,20.78-13.31,21-26.11.25-18.4-14.59-29.6-36.79-29.91-19.4-.27-36.13,9.5-36.39,28.3-.17,12,7.87,23.31,21.22,27.1a34.77,34.77,0,0,0,7.19,1.09Z"/>
    <path class="cls-2" d="M387.59,470.67c10,.14,18.8.06,26.41-.44l-.21,15.6-15.82.78v.4a36.46,36.46,0,0,1,17.56,32.25c-.21,15.19-8.86,33.28-42.86,32.81l-56.59-.78.24-17.6,53.59.74c18.4.25,30.88-5.18,31.1-21.17.16-11.8-7.93-20.12-15.68-23.42a25.81,25.81,0,0,0-9-1.73L317,487.29l.24-17.59Z"/>
    <path class="cls-2" d="M396.36,444a46.18,46.18,0,0,0,7.32-23.1c.18-12.8-6.14-18.89-14.14-19-8.4-.12-13.06,4.82-18,17.75C365.06,437,355.35,445,343.75,444.86c-15.6-.21-28.23-13-27.94-33.79.14-9.8,3.05-18.36,6.33-23.71l12.74,4.57A37.65,37.65,0,0,0,329,411.65c-.14,10.4,5.78,16.29,13,16.38,8,.12,11.68-5.63,16.65-18.17,6.63-16.71,15.15-25.19,29.55-25,17,.23,28.81,13.6,28.5,36.6-.15,10.59-2.89,20.36-7,27.1Z"/>
    <path class="cls-2" d="M273.5,360.68l.25-17.59,60.39.83v-.4a32.63,32.63,0,0,1-12.22-12.77,36.22,36.22,0,0,1-4.75-18.07c.18-13,8.46-33.68,41.86-33.22l57.59.79-.24,17.6-55.59-.77c-15.6-.21-28.88,5.41-29.11,22-.16,11.4,7.72,20.51,17.27,23.84,2.39,1,5,1.27,8.39,1.32l58.39.8-.24,17.6Z"/>
    <path class="cls-2" d="M364.86,233.53v-.4c-3.37-2.44-7.52-5.9-10.88-8.75l-33-28.86.29-21.19,39.28,37.94,57.58-41.81-.3,21.4L371,224.62l9.87,9.13,36.4.51L417,251.65l-142-2,.24-17.4Z"/>
    <path class="cls-2" d="M419.1,100.67l-12.22,1.23v.6c7.52,5.51,14.18,16,14,29.8-.27,19.6-14.21,29.41-28.21,29.21-23.4-.32-35.91-21.29-35.19-58.69l-2,0c-8-.11-22.43,1.89-22.7,21.68a48.14,48.14,0,0,0,6.85,25.3L328,153.62c-5.08-8.07-8.32-19.72-8.16-31.92.41-29.59,20.71-36.51,40.11-36.24l36.19.5a137.78,137.78,0,0,0,23.22-1.28Zm-49.43,1.92c-.66,19.19,2.44,41,21.23,41.3,11.4.15,16.91-7.37,17-16.37.17-12.6-7.71-20.71-15.87-23.62a18.45,18.45,0,0,0-5.59-1.08Z"/>
  </g>
</svg>
